<svg id="fi_2994300" enable-background="new 0 0 512 512" height="512" viewBox="0 0 512 512" width="512" xmlns="http://www.w3.org/2000/svg"><g><g><path d="m482.326 261.16c0 74.593-36.047 140.766-91.667 182.067l-79.725 27.681-15.553-6.52-242.365-101.554c-9.402-18.681-16.283-38.832-20.224-60.032l52.12-141.376 146.017-112.894 9.142-7.07 50.669-4.25c23.564 3.66 45.929 10.95 66.492 21.281l124.314 193.277.71 6.3.06 2.12c0 .31.01.64.01.97z" fill="#7ac2ed"></path><path d="m482.326 261.16c0 74.593-36.047 140.766-91.667 182.067l-79.725 27.681-15.553-6.52c86.826-26.761 149.928-107.634 149.928-203.228 0-117.435-95.218-212.638-212.67-212.638-.57 0-1.14 0-1.71.01l9.142-7.07 50.669-4.25c23.564 3.66 45.929 10.95 66.492 21.281l124.314 193.277.71 6.3.06 2.12c0 .31.01.64.01.97z" fill="#68a6dc"></path><g fill="#d1e16f"><path d="m290.741 37.211c-8.922 4.9-16.563 9.62-23.084 14.18-63.172 44.082-22.614 72.923-38.917 103.994-20.344 38.762-99.128 14.28-118.372 29.321-25.675 20.061 0 102.244-77.574 118.095-2.51-13.501-3.821-27.421-3.821-41.642 0-69.963 31.706-132.525 81.535-174.097 39.317-32.811 89.917-52.552 145.137-52.552 11.931.001 23.653.921 35.096 2.701z"></path><path d="m296.205 321.905c-7.141 16.339-58.722 12.608-71.332 0s-16.475-64.498 0-71.321c23.3-9.65 81.43 48.215 71.332 71.321z"></path><path d="m390.659 443.227c-37.707 28.001-84.426 44.572-135.015 44.572-55.17 0-105.73-19.701-145.027-52.462-23.844-19.861-43.528-44.532-57.601-72.503 89.307 0 34.106-60.032 75.514-60.032 55.33 0 48.189 89.813 78.415 105.414 29.856 15.421 52.16-16.881 94.608-16.881 32.246 0 32.596 28.101 54.59 42.952 7.891 5.32 18.573 8.94 34.516 8.94z"></path></g><path d="m482.316 260.19c-.57-18.061-17.283-10.28-37.317-10.57-14.703-.21-31.196-4.78-44.408-27.091-31.096-52.522-105.43-13.541-105.43-78.403 0-36.061 47.099-6.51 59.241-57.322 1.8-7.52 2.831-16.801 2.831-28.311 73.914 37.101 124.723 113.444 125.083 201.697z" fill="#d0edf5"></path><path d="m232.64 48.522c-45.448 0-87.576 14.261-122.133 38.542 39.317-32.811 89.917-52.552 145.137-52.552 11.932 0 23.654.92 35.096 2.7-8.922 4.9-16.563 9.62-23.084 14.18-11.392-1.89-23.084-2.87-35.016-2.87z" fill="#9ccc4b"></path><path d="m356.143 434.287c7.891 5.32 18.573 8.94 34.516 8.94-37.707 28.001-84.426 44.572-135.015 44.572-55.17 0-105.73-19.701-145.027-52.462 34.536 24.241 76.614 38.461 122.023 38.461 46.048 0 88.686-14.64 123.503-39.511z" fill="#9ccc4b"></path><path d="m482.316 260.19c-.57-18.061-17.283-10.28-37.317-10.57-3.601-67.383-38.587-126.435-90.597-162.816 1.8-7.52 2.831-16.801 2.831-28.311 73.914 37.101 124.723 113.444 125.083 201.697z" fill="#a6dff5"></path></g><g><path d="m182.483 79.254c0 12.579-10.21 22.788-22.791 22.788h-121.123c-17.159 0-31.066-13.914-31.066-31.071 0-17.148 13.907-31.062 31.066-31.062 7.149 0 13.735 2.416 18.985 6.476 3.96-22.106 23.291-38.891 46.536-38.891 10.583 0 20.366 3.479 28.25 9.355 11.545 8.619 19.03 22.397 19.03 37.919 0 1.108-.036 2.216-.109 3.306 2.607-1.035 5.45-1.608 8.43-1.608 12.582.001 22.792 10.2 22.792 22.788z" fill="#e6f8fc"></path><path d="m182.483 79.254c0 12.579-10.21 22.788-22.791 22.788h-121.123c-17.159 0-31.066-13.914-31.066-31.071 0 8.528 10.546 16.212 19.067 16.212h67.392c25.135-.245 45.428-20.699 45.428-45.884 0-8.992-2.58-17.375-7.049-24.45 11.545 8.619 19.03 22.397 19.03 37.919 0 1.108-.036 2.216-.109 3.306 2.607-1.035 5.45-1.608 8.43-1.608 12.581.001 22.791 10.2 22.791 22.788z" fill="#d0edf5"></path></g><g><path d="m504.5 368.306c0 10.051-8.158 18.207-18.21 18.207h-96.775c-13.71 0-24.822-11.117-24.822-24.825 0-13.701 11.112-24.818 24.822-24.818 5.712 0 10.974 1.93 15.169 5.174 3.164-17.663 18.609-31.073 37.181-31.073 8.455 0 16.272 2.779 22.572 7.474 9.225 6.887 15.205 17.895 15.205 30.297 0 .885-.029 1.771-.087 2.641 2.083-.827 4.355-1.284 6.735-1.284 10.053 0 18.21 8.149 18.21 18.207z" fill="#e6f8fc"></path><path d="m504.5 368.306c0 10.051-8.158 18.207-18.21 18.207h-96.775c-13.71 0-24.822-11.117-24.822-24.825 0 6.814 8.426 12.953 15.234 12.953h53.845c20.082-.196 36.296-16.538 36.296-36.661 0-7.184-2.061-13.882-5.632-19.535 9.225 6.887 15.205 17.895 15.205 30.297 0 .885-.029 1.771-.087 2.641 2.083-.827 4.355-1.284 6.735-1.284 10.054 0 18.211 8.149 18.211 18.207z" fill="#d0edf5"></path></g></g><g><path d="m425.418 422.477c2.854-3.001 2.735-7.749-.266-10.604-3.002-2.854-7.749-2.735-10.604.266-8.185 8.607-16.959 16.471-26.278 23.564-26.78-.692-35.344-12.911-44.395-25.826-8.554-12.206-18.249-26.04-42.313-26.04-20.463 0-36.244 6.786-50.167 12.773-16.028 6.892-27.607 11.872-41.015 4.952-9.445-4.875-15.132-21.866-21.152-39.854-9.902-29.584-22.225-66.402-60.718-66.402-23.61 0-25.206 17.076-26.262 28.376-1.47 15.728-2.861 30.612-44.694 31.608-7.11-14.926-12.493-30.632-16.045-46.871 48.7-13.434 56.026-53.838 61.442-83.707 2.686-14.81 5.222-28.798 12.008-34.101 4.939-3.859 20.363-4.004 26.949-4.066 4.142-.039 7.468-3.428 7.429-7.57-.039-4.118-3.389-7.43-7.498-7.43-.024 0-.048 0-.072 0-16.729.157-28.593 1.424-36.043 7.246-11.29 8.822-14.322 25.542-17.532 43.245-5.135 28.319-10.914 60.195-49.395 71.55-1.57-10.643-2.369-21.476-2.369-32.431 0-44.742 13.396-87.77 38.739-124.434 2.355-3.407 1.502-8.079-1.905-10.434-3.407-2.356-8.079-1.503-10.434 1.905-27.084 39.182-41.4 85.16-41.4 132.963 0 62.545 24.364 121.347 68.603 165.573 44.239 44.225 103.057 68.581 165.62 68.581 32.66 0 64.266-6.593 93.941-19.596 28.66-12.557 54.172-30.469 75.826-53.236zm-169.767 57.833c-58.557 0-113.609-22.796-155.015-64.189-13.977-13.973-25.835-29.501-35.411-46.193 19.115-1.377 32.522-6.19 40.794-14.601 9.212-9.367 10.294-20.945 11.164-30.249 1.162-12.431 1.685-14.771 11.327-14.771 25.769 0 35.139 22.237 46.494 56.163 7.015 20.958 13.64 40.754 28.497 48.422 19.701 10.169 36.273 3.043 53.82-4.501 13.209-5.68 26.867-11.553 44.242-11.553 16.259 0 22.035 8.242 30.029 19.649 7.842 11.19 17.177 24.51 38.168 29.856-8.375 5.106-17.113 9.657-26.188 13.634-27.765 12.164-57.346 18.333-87.921 18.333z"></path><path d="m198.597 49.496c18.505-4.973 37.701-7.494 57.054-7.494 3.995 0 7.983.109 11.96.326-19.345 12.767-31.757 25.321-38.459 38.725-7.979 15.959-6.269 30.094-4.76 42.564 1.262 10.429 2.352 19.436-2.29 28.277-6.092 11.602-19.495 17.498-43.457 19.115-4.133.279-7.257 3.855-6.978 7.988.267 3.961 3.563 6.996 7.476 6.996.169 0 .34-.006.512-.018 18.467-1.246 44.336-5.413 55.728-27.108 6.814-12.979 5.333-25.217 3.901-37.052-1.377-11.38-2.678-22.129 3.285-34.055 7.005-14.01 23.215-27.999 49.52-42.72 19.949 3.35 39.35 9.438 57.607 18.103-1.115 42.932-17.853 47.174-34.057 51.281-12.459 3.158-27.966 7.087-27.966 29.697 0 41.303 28.094 47.21 52.881 52.421 20.197 4.247 41.082 8.638 53.619 29.807 20.242 34.179 48.936 31.525 66.079 29.939 4.906-.455 12.32-1.14 13.756.169.003.003.362.108.825.413.027 1.426.041 2.855.041 4.285 0 9.707-.641 19.47-1.904 29.019-.543 4.106 2.345 7.876 6.451 8.419.334.044.666.066.993.066 3.705 0 6.927-2.745 7.426-6.517 1.35-10.199 2.034-20.625 2.034-30.987 0-30.155-5.654-59.513-16.805-87.256-1.544-3.843-5.912-5.705-9.756-4.162-3.843 1.545-5.707 5.913-4.162 9.756 7.932 19.735 12.891 40.348 14.812 61.502-4.617-.612-9.774-.135-15.094.357-17.055 1.579-36.386 3.366-51.791-22.646-15.899-26.847-42.259-32.389-63.439-36.842-26.92-5.66-40.967-9.91-40.967-37.743 0-10.471 3.726-11.881 16.651-15.157 16.748-4.244 41.423-10.497 44.994-58.187.544.311 1.087.624 1.629.94 32.361 18.872 59.54 45.894 78.596 78.145 1.4 2.369 3.898 3.686 6.464 3.686 1.297 0 2.611-.336 3.809-1.044 3.566-2.107 4.749-6.706 2.642-10.272-20.355-34.449-49.386-63.313-83.954-83.471-35.626-20.776-76.378-31.757-117.852-31.757-20.667 0-41.172 2.694-60.947 8.008-4 1.075-6.372 5.189-5.297 9.189 1.075 3.999 5.188 6.368 9.19 5.295z"></path><path d="m486.731 342.604c-3.005-22.067-21.978-39.126-44.861-39.126-18.555 0-34.813 11.184-41.74 27.67-3.372-1.17-6.942-1.772-10.613-1.772-17.823 0-32.323 14.497-32.323 32.316s14.5 32.316 32.323 32.316h37.961c4.142 0 7.5-3.358 7.5-7.5s-3.358-7.5-7.5-7.5h-37.961c-9.552 0-17.323-7.768-17.323-17.316s7.771-17.316 17.323-17.316c3.872 0 7.531 1.247 10.582 3.605 2.075 1.604 4.837 2.007 7.283 1.064 2.447-.943 4.224-3.096 4.686-5.677 2.582-14.422 15.115-24.89 29.802-24.89 16.694 0 30.276 13.577 30.276 30.265 0 .703-.025 1.418-.074 2.126-.178 2.572.978 5.056 3.061 6.576s4.799 1.864 7.197.91c1.257-.501 2.59-.755 3.961-.755 5.905 0 10.709 4.802 10.709 10.704s-4.804 10.704-10.709 10.704h-24.232c-4.142 0-7.5 3.358-7.5 7.5s3.358 7.5 7.5 7.5h24.232c14.176 0 25.709-11.531 25.709-25.704 0-14.027-11.295-25.465-25.269-25.7z"></path><path d="m38.569 109.532h24.846c4.142 0 7.5-3.358 7.5-7.5s-3.358-7.5-7.5-7.5h-24.846c-12.996 0-23.569-10.569-23.569-23.559s10.573-23.56 23.569-23.56c5.266 0 10.245 1.697 14.399 4.907 2.074 1.603 4.834 2.007 7.283 1.063 2.447-.943 4.223-3.095 4.686-5.677 3.392-18.951 19.859-32.706 39.156-32.706 21.935 0 39.781 17.839 39.781 39.766 0 .919-.033 1.859-.097 2.792-.178 2.572.978 5.056 3.061 6.576s4.8 1.864 7.197.909c1.796-.715 3.699-1.078 5.656-1.078 8.431 0 15.291 6.856 15.291 15.284s-6.859 15.283-15.291 15.283h-61.436c-4.142 0-7.5 3.358-7.5 7.5s3.358 7.5 7.5 7.5h61.435c16.702 0 30.291-13.585 30.291-30.283 0-16.699-13.588-30.284-30.291-30.284-.374 0-.747.007-1.119.02-2.898-27.491-26.224-48.985-54.478-48.985-23.076 0-43.215 14.294-51.176 35.159-4.512-1.811-9.352-2.746-14.349-2.746-21.266 0-38.568 17.298-38.568 38.56s17.302 38.559 38.569 38.559z"></path><path d="m40.363 497h-32.863c-4.142 0-7.5 3.358-7.5 7.5s3.358 7.5 7.5 7.5h32.863c4.142 0 7.5-3.358 7.5-7.5s-3.358-7.5-7.5-7.5z"></path><path d="m143.402 497h-67.876c-4.142 0-7.5 3.358-7.5 7.5s3.358 7.5 7.5 7.5h67.876c4.142 0 7.5-3.358 7.5-7.5s-3.358-7.5-7.5-7.5z"></path><path d="m90.382 479.998c4.142 0 7.5-3.358 7.5-7.5s-3.358-7.5-7.5-7.5h-62.874c-4.142 0-7.5 3.358-7.5 7.5s3.358 7.5 7.5 7.5z"></path><path d="m415.032 497h-62.875c-4.142 0-7.5 3.358-7.5 7.5s3.358 7.5 7.5 7.5h62.875c4.142 0 7.5-3.358 7.5-7.5s-3.358-7.5-7.5-7.5z"></path><path d="m504.5 464.998h-92.886c-4.142 0-7.5 3.358-7.5 7.5s3.358 7.5 7.5 7.5h92.886c4.142 0 7.5-3.358 7.5-7.5s-3.358-7.5-7.5-7.5z"></path><path d="m368.597 15h32.863c4.142 0 7.5-3.358 7.5-7.5s-3.358-7.5-7.5-7.5h-32.863c-4.142 0-7.5 3.358-7.5 7.5s3.358 7.5 7.5 7.5z"></path><path d="m436.624 15h67.876c4.142 0 7.5-3.358 7.5-7.5s-3.358-7.5-7.5-7.5h-67.876c-4.142 0-7.5 3.358-7.5 7.5s3.357 7.5 7.5 7.5z"></path><path d="m398.609 32.002c-4.142 0-7.5 3.358-7.5 7.5s3.358 7.5 7.5 7.5h62.875c4.142 0 7.5-3.358 7.5-7.5s-3.358-7.5-7.5-7.5z"></path><path d="m251.324 248.063c-11.653-6.156-21.519-7.639-29.32-4.408-4.903 2.03-11.341 7.438-14.172 21.67-3.848 19.346.442 50.594 11.739 61.888 8.585 8.583 28.31 13.09 45.894 13.09 5.44 0 10.678-.432 15.314-1.308 14.556-2.75 20.167-9.176 22.312-14.083 6.925-15.842-7.669-38.884-23.636-55.165-8.955-9.13-18.945-16.831-28.131-21.684zm38.023 70.841c-.705 1.612-4.101 3.981-11.353 5.351-17.401 3.286-41.689-1.524-47.818-7.651-7.275-7.272-10.52-33.835-7.632-48.354 1.374-6.905 3.659-10.1 5.199-10.737.849-.351 1.875-.526 3.057-.526 7.929 0 22.857 7.876 37.946 23.262 16.846 17.179 23.187 32.738 20.601 38.655z"></path></g></svg>