<svg width="225.95498046875px" height="120.8099884033203px" xmlns="http://www.w3.org/2000/svg" viewBox="137.022509765625 14.595005798339848 225.95498046875 120.8099884033203" style="background: rgba(0, 0, 0, 0);" preserveAspectRatio="xMidYMid"><defs><linearGradient id="editing-shiny-gradient" x1="0.04322727117869957" x2="0.9567727288213004" y1="0.2966316784620999" y2="0.7033683215379001" gradientUnits="objectBoundingBox"><stop offset="0.0" stop-color="#ffb200"></stop><stop offset="0.5" stop-color="#e10057"></stop><stop offset="1.0" stop-color="#5A1A80"></stop></linearGradient><linearGradient id="editing-shiny-gradient2" x1="0" x2="0" y1="0" y2="1"><stop offset="0.2" stop-color="#fff" stop-opacity="0.8"></stop><stop offset="0.8" stop-color="#fff" stop-opacity="0"></stop></linearGradient><filter id="editing-shiny2" x="-100%" y="-100%" width="300%" height="300%"><feMorphology operator="erode" radius="2"></feMorphology></filter><filter id="editing-shiny" x="-100%" y="-100%" width="300%" height="300%"><feFlood flood-color="#fff" result="flood"></feFlood><feConvolveMatrix in="SourceGraphic" result="conv" order="8,8" divisor="1" kernelMatrix="0 0 0 0 0 0 0 0 0 0 0 1 1 0 0 0 0 0 0 1 1 0 0 0 0 0 1 0 0 1 0 0 0 0 1 0 0 1 0 0 0 1 0 0 0 0 1 0 0 1 1 0 0 1 1 0 0 0 0 1 1 0 0 0 "></feConvolveMatrix><feOffset dx="0" dy="4" in="conv" result="offset"></feOffset><feComposite operator="in" in="flood" in2="offset" result="comp"></feComposite><feGaussianBlur in="offset" stdDeviation="3" result="shadow"></feGaussianBlur><feColorMatrix in="shadow" type="matrix" values="0.7 0 0 0 0  0 0.7 0 0 0  0 0 0.7 0 0  0 0 0 0.3 0" result="dark-shadow"></feColorMatrix><feOffset dx="0" dy="4" in="dark-shadow" result="offset-shadow"></feOffset><feOffset dx="0" dy="2" in="conv" result="offset-2"></feOffset><feComposite operator="out" in="offset" in2="offset-2" result="edge-diff"></feComposite><feGaussianBlur in="edge-diff" stdDeviation="1" result="edge-blur"></feGaussianBlur><feColorMatrix in="edge-blur" result="edge-shadow" type="matrix" values="0 0 0 0 0  0 0 0 0 0  0 0 0 0 0  0 0 0 0.5 0"></feColorMatrix><feComposite operator="in" in="edge-shadow" in2="offset" result="edge-shadow-in"></feComposite><feOffset dx="0" dy="1" in="edge-shadow-in" result="edge-shadow-final"></feOffset><feMerge result="out"><feMergeNode in="offset-shadow"></feMergeNode><feMergeNode in="comp"></feMergeNode><feMergeNode in="edge-shadow-final"></feMergeNode><feMergeNode in="SourceGraphic"></feMergeNode></feMerge></filter></defs><g filter="url(#editing-shiny)"><g transform="translate(174.86500000953674, 96.76000022888184)"><path d="M28.42-9.86L28.42-9.86L28.42-9.86Q29.63-8.32 29.63-5.82L29.63-5.82L29.63-5.82Q29.63-2.37 27.07-0.54L27.07-0.54L27.07-0.54Q24.51 1.28 20.48 1.28L20.48 1.28L20.48 1.28Q18.18 1.28 14.66 0.77L14.66 0.77L14.66 0.77Q7.74-0.32 5.63-0.32L5.63-0.32L5.63-0.32Q3.52-0.32 2.69-0.22L2.69-0.22L2.69-0.22Q1.86-0.13 0.51 0L0.51 0L8.38-42.24L35.97-42.24L35.97-42.24Q35.97-38.34 34.08-36.29L34.08-36.29L34.08-36.29Q32.19-34.24 28.48-34.24L28.48-34.24L28.48-34.24Q24.77-34.24 20.99-35.97L20.99-35.97L19.01-24.77L30.40-24.77L30.40-24.77Q30.40-21.38 28.74-19.49L28.74-19.49L28.74-19.49Q27.07-17.60 24.29-17.60L24.29-17.60L24.29-17.60Q21.50-17.60 19.78-18.24L19.78-18.24L19.78-18.24Q18.05-18.88 17.86-19.07L17.86-19.07L15.55-6.98L15.55-6.98Q17.09-6.78 19.97-6.78L19.97-6.78L19.97-6.78Q24.90-6.78 28.42-9.86ZM36.54-6.40L36.54-6.40L36.54-6.40Q36.54-8.13 37.44-12.48L37.44-12.48L40.83-29.76L37.06-29.76L37.31-31.68L37.31-31.68Q44.99-33.98 52.42-39.62L52.42-39.62L55.49-39.62L53.95-32.64L58.94-32.64L58.37-29.76L53.44-29.76L50.18-12.48L50.18-12.48Q49.34-8.51 49.34-7.17L49.34-7.17L49.34-7.17Q49.34-4.10 52.03-3.46L52.03-3.46L52.03-3.46Q51.39-1.28 49.09 0L49.09 0L49.09 0Q46.78 1.28 43.52 1.28L43.52 1.28L43.52 1.28Q40.26 1.28 38.40-0.77L38.40-0.77L38.40-0.77Q36.54-2.82 36.54-6.40ZM72.32 1.28L72.32 1.28L72.32 1.28Q58.24 1.28 58.24-11.97L58.24-11.97L58.24-11.97Q58.24-21.38 63.42-27.46L63.42-27.46L63.42-27.46Q68.93-33.92 78.46-33.92L78.46-33.92L78.46-33.92Q85.38-33.92 88.90-30.72L88.90-30.72L88.90-30.72Q92.42-27.52 92.42-20.80L92.42-20.80L92.42-20.80Q92.42-10.56 86.91-4.61L86.91-4.61L86.91-4.61Q81.54 1.28 72.32 1.28ZM73.98-26.56L73.98-26.56L73.98-26.56Q73.22-24.83 72.61-22.24L72.61-22.24L72.61-22.24Q72-19.65 71.23-15.55L71.23-15.55L71.23-15.55Q70.46-11.46 70.46-6.40L70.46-6.40L70.46-6.40Q70.46-4.74 71.01-3.65L71.01-3.65L71.01-3.65Q71.55-2.56 73.02-2.56L73.02-2.56L73.02-2.56Q74.50-2.56 75.42-3.26L75.42-3.26L75.42-3.26Q76.35-3.97 77.06-5.63L77.06-5.63L77.06-5.63Q78.34-8.58 79.36-14.05L79.36-14.05L79.36-14.05Q80.38-19.52 80.48-21.89L80.48-21.89L80.48-21.89Q80.58-24.26 80.58-26.02L80.58-26.02L80.58-26.02Q80.58-27.78 80.06-28.93L80.06-28.93L80.06-28.93Q79.55-30.08 78.11-30.08L78.11-30.08L78.11-30.08Q76.67-30.08 75.71-29.18L75.71-29.18L75.71-29.18Q74.75-28.29 73.98-26.56ZM101.63 0L94.27 0L105.86-42.24L119.23-42.24L122.18-18.11L134.08-42.24L145.28-42.24L146.43-10.62L146.43-10.62Q146.69-4.35 149.76-2.43L149.76-2.43L149.76-2.43Q149.06-1.15 147.01 0.06L147.01 0.06L147.01 0.06Q144.96 1.28 142.24 1.28L142.24 1.28L142.24 1.28Q139.52 1.28 137.92 0.51L137.92 0.51L137.92 0.51Q136.32-0.26 135.42-1.54L135.42-1.54L135.42-1.54Q133.82-3.84 133.82-8.26L133.82-8.26L133.82-28.03L121.22 0L113.28 0L108.80-28.74L101.63 0Z" fill="url(#editing-shiny-gradient)"></path></g></g><g filter="url(#editing-shiny2)"><g transform="translate(174.86500000953674, 96.76000022888184)"><path d="M28.42-9.86L28.42-9.86L28.42-9.86Q29.63-8.32 29.63-5.82L29.63-5.82L29.63-5.82Q29.63-2.37 27.07-0.54L27.07-0.54L27.07-0.54Q24.51 1.28 20.48 1.28L20.48 1.28L20.48 1.28Q18.18 1.28 14.66 0.77L14.66 0.77L14.66 0.77Q7.74-0.32 5.63-0.32L5.63-0.32L5.63-0.32Q3.52-0.32 2.69-0.22L2.69-0.22L2.69-0.22Q1.86-0.13 0.51 0L0.51 0L8.38-42.24L35.97-42.24L35.97-42.24Q35.97-38.34 34.08-36.29L34.08-36.29L34.08-36.29Q32.19-34.24 28.48-34.24L28.48-34.24L28.48-34.24Q24.77-34.24 20.99-35.97L20.99-35.97L19.01-24.77L30.40-24.77L30.40-24.77Q30.40-21.38 28.74-19.49L28.74-19.49L28.74-19.49Q27.07-17.60 24.29-17.60L24.29-17.60L24.29-17.60Q21.50-17.60 19.78-18.24L19.78-18.24L19.78-18.24Q18.05-18.88 17.86-19.07L17.86-19.07L15.55-6.98L15.55-6.98Q17.09-6.78 19.97-6.78L19.97-6.78L19.97-6.78Q24.90-6.78 28.42-9.86ZM36.54-6.40L36.54-6.40L36.54-6.40Q36.54-8.13 37.44-12.48L37.44-12.48L40.83-29.76L37.06-29.76L37.31-31.68L37.31-31.68Q44.99-33.98 52.42-39.62L52.42-39.62L55.49-39.62L53.95-32.64L58.94-32.64L58.37-29.76L53.44-29.76L50.18-12.48L50.18-12.48Q49.34-8.51 49.34-7.17L49.34-7.17L49.34-7.17Q49.34-4.10 52.03-3.46L52.03-3.46L52.03-3.46Q51.39-1.28 49.09 0L49.09 0L49.09 0Q46.78 1.28 43.52 1.28L43.52 1.28L43.52 1.28Q40.26 1.28 38.40-0.77L38.40-0.77L38.40-0.77Q36.54-2.82 36.54-6.40ZM72.32 1.28L72.32 1.28L72.32 1.28Q58.24 1.28 58.24-11.97L58.24-11.97L58.24-11.97Q58.24-21.38 63.42-27.46L63.42-27.46L63.42-27.46Q68.93-33.92 78.46-33.92L78.46-33.92L78.46-33.92Q85.38-33.92 88.90-30.72L88.90-30.72L88.90-30.72Q92.42-27.52 92.42-20.80L92.42-20.80L92.42-20.80Q92.42-10.56 86.91-4.61L86.91-4.61L86.91-4.61Q81.54 1.28 72.32 1.28ZM73.98-26.56L73.98-26.56L73.98-26.56Q73.22-24.83 72.61-22.24L72.61-22.24L72.61-22.24Q72-19.65 71.23-15.55L71.23-15.55L71.23-15.55Q70.46-11.46 70.46-6.40L70.46-6.40L70.46-6.40Q70.46-4.74 71.01-3.65L71.01-3.65L71.01-3.65Q71.55-2.56 73.02-2.56L73.02-2.56L73.02-2.56Q74.50-2.56 75.42-3.26L75.42-3.26L75.42-3.26Q76.35-3.97 77.06-5.63L77.06-5.63L77.06-5.63Q78.34-8.58 79.36-14.05L79.36-14.05L79.36-14.05Q80.38-19.52 80.48-21.89L80.48-21.89L80.48-21.89Q80.58-24.26 80.58-26.02L80.58-26.02L80.58-26.02Q80.58-27.78 80.06-28.93L80.06-28.93L80.06-28.93Q79.55-30.08 78.11-30.08L78.11-30.08L78.11-30.08Q76.67-30.08 75.71-29.18L75.71-29.18L75.71-29.18Q74.75-28.29 73.98-26.56ZM101.63 0L94.27 0L105.86-42.24L119.23-42.24L122.18-18.11L134.08-42.24L145.28-42.24L146.43-10.62L146.43-10.62Q146.69-4.35 149.76-2.43L149.76-2.43L149.76-2.43Q149.06-1.15 147.01 0.06L147.01 0.06L147.01 0.06Q144.96 1.28 142.24 1.28L142.24 1.28L142.24 1.28Q139.52 1.28 137.92 0.51L137.92 0.51L137.92 0.51Q136.32-0.26 135.42-1.54L135.42-1.54L135.42-1.54Q133.82-3.84 133.82-8.26L133.82-8.26L133.82-28.03L121.22 0L113.28 0L108.80-28.74L101.63 0Z" fill="url(#editing-shiny-gradient2)"></path></g></g><style>text {
  font-size: 24px;
  font-family: Arial Black;
  dominant-baseline: central;
  text-anchor: middle;
}</style></svg>