<svg version="1.1" id="fi_683448" xmlns="http://www.w3.org/2000/svg" xmlns:xlink="http://www.w3.org/1999/xlink" x="0px" y="0px" viewBox="0 0 511.754 511.754" style="enable-background:new 0 0 511.754 511.754;" xml:space="preserve">
<path style="fill:#FC6E51;" d="M480.145,59.468c0,17.944-14.54,32.488-32.484,32.488s-32.484-14.544-32.484-32.488
	c0-17.941,14.54-32.484,32.484-32.484S480.145,41.527,480.145,59.468z"></path>
<g style="opacity:0.3;">
	<path style="fill:#FFFFFF;" d="M423.172,59.468c0-16.57,12.455-30.091,28.486-32.083c-1.32-0.164-2.624-0.402-3.998-0.402
		c-17.944,0-32.484,14.543-32.484,32.484c0,17.944,14.54,32.488,32.484,32.488c1.374,0,2.678-0.238,3.998-0.402
		C435.627,89.563,423.172,76.042,423.172,59.468z"></path>
</g>
<g style="opacity:0.2;">
	<path d="M471.648,59.472c0,16.57-12.455,30.091-28.486,32.082c1.32,0.164,2.624,0.402,3.998,0.402
		c17.944,0,32.484-14.544,32.484-32.484c0-17.945-14.54-32.488-32.484-32.488c-1.374,0-2.678,0.238-3.998,0.402
		C459.193,29.377,471.648,42.898,471.648,59.472z"></path>
</g>
<path style="fill:#656D78;" d="M483.65,387.814h-31.984c8.832,0,15.992-7.161,15.992-15.992c0-8.832-7.16-15.992-15.992-15.992
	h-31.984c8.831,0,15.992-7.161,15.992-15.992c0-8.832-7.161-15.993-15.992-15.993h-47.978c8.832,0,15.993-7.16,15.993-15.992
	c0-8.831-7.161-15.992-15.993-15.992h87.958c8.832,0,15.992-7.16,15.992-15.992s-7.16-15.992-15.992-15.992h-39.98
	c8.831,0,15.992-7.161,15.992-15.992c0-8.832-7.161-15.992-15.992-15.992H403.69c8.831,0,15.992-7.161,15.992-15.992
	c0-8.832-7.161-15.993-15.992-15.993h79.961c8.832,0,15.992-7.161,15.992-15.992s-7.16-15.993-15.992-15.993h-31.984
	c8.832,0,15.992-7.16,15.992-15.992s-7.16-15.992-15.992-15.992h-31.984c8.831,0,15.992-7.161,15.992-15.992
	c0-8.832-7.161-15.992-15.992-15.992h-23.988c8.831,0,15.992-7.161,15.992-15.992c0-8.832-7.161-15.993-15.992-15.993H155.809
	c-8.832,0-15.992,7.161-15.992,15.993c0,8.831,7.161,15.992,15.992,15.992H99.835c-8.832,0-15.992,7.16-15.992,15.992
	s7.161,15.992,15.992,15.992H83.843c-8.832,0-15.992,7.161-15.992,15.992c0,8.832,7.16,15.992,15.992,15.992h47.977
	c-8.831,0-15.992,7.161-15.992,15.993s7.161,15.992,15.992,15.992H43.863c-8.832,0-15.993,7.161-15.993,15.993
	c0,8.831,7.161,15.992,15.993,15.992h39.98c-8.832,0-15.992,7.16-15.992,15.992s7.16,15.992,15.992,15.992h-39.98
	c-8.832,0-15.993,7.16-15.993,15.992s7.161,15.992,15.993,15.992H27.87c-8.832,0-15.993,7.161-15.993,15.992
	c0,8.832,7.161,15.992,15.993,15.992h39.981c-8.832,0-15.992,7.161-15.992,15.993c0,8.831,7.16,15.992,15.992,15.992H51.859
	c-8.832,0-15.993,7.16-15.993,15.992c0,8.831,7.161,15.992,15.993,15.992h79.961c-8.831,0-15.992,7.161-15.992,15.992
	c0,8.832,7.161,15.992,15.992,15.992H99.835c-8.832,0-15.992,7.161-15.992,15.993c0,8.831,7.161,15.992,15.992,15.992h271.869
	c8.832,0,15.993-7.161,15.993-15.992c0-8.832-7.161-15.993-15.993-15.993H483.65c8.832,0,15.992-7.16,15.992-15.992
	C499.643,394.975,492.482,387.814,483.65,387.814z"></path>
<path style="fill:#AC92EC;" d="M55.857,499.76c0,4.42-3.581,7.996-7.996,7.996c-4.416,0-7.997-3.576-7.997-7.996
	s3.581-7.996,7.997-7.996C52.276,491.764,55.857,495.34,55.857,499.76z"></path>
<path style="fill:#ED5565;" d="M403.689,259.875c0,81.695-66.234,147.929-147.929,147.929c-81.699,0-147.929-66.233-147.929-147.929
	s66.23-147.929,147.929-147.929C337.455,111.946,403.689,178.18,403.689,259.875z"></path>
<g style="opacity:0.3;">
	<path style="fill:#FFFFFF;" d="M139.816,259.875c0-76.288,57.765-139.054,131.936-147.031c-5.263-0.566-10.584-0.898-15.992-0.898
		c-81.699,0-147.929,66.233-147.929,147.929s66.23,147.929,147.929,147.929c5.408,0,10.729-0.327,15.992-0.897
		C197.582,398.934,139.816,336.166,139.816,259.875z"></path>
</g>
<g style="opacity:0.2;">
	<path d="M371.704,259.875c0,76.291-57.769,139.059-131.936,147.031c5.259,0.57,10.585,0.897,15.992,0.897
		c81.695,0,147.929-66.233,147.929-147.929S337.455,111.945,255.76,111.945c-5.407,0-10.733,0.332-15.992,0.898
		C313.936,120.821,371.704,183.587,371.704,259.875z"></path>
</g>
<path style="fill:#DA4453;" d="M339.72,227.891c0,6.622-12.533,11.994-27.986,11.994c-15.462,0-27.987-5.373-27.987-11.994
	c0-6.622,12.525-11.994,27.987-11.994C327.187,215.897,339.72,221.269,339.72,227.891z"></path>
<g style="opacity:0.2;">
	<path d="M291.743,227.891c0-6.036,10.44-10.983,23.988-11.823c-1.319-0.082-2.632-0.171-3.998-0.171
		c-15.462,0-27.987,5.372-27.987,11.994c0,6.622,12.525,11.994,27.987,11.994c1.366,0,2.679-0.09,3.998-0.172
		C302.184,238.874,291.743,233.927,291.743,227.891z"></path>
</g>
<path style="fill:#DA4453;" d="M235.77,167.919c0,4.42-7.16,7.997-15.992,7.997s-15.992-3.577-15.992-7.997
	c0-4.419,7.161-7.996,15.992-7.996C228.61,159.923,235.77,163.5,235.77,167.919z"></path>
<g style="opacity:0.2;">
	<path d="M211.782,167.919c0-3.725,5.107-6.82,11.994-7.715c-1.284-0.164-2.608-0.281-3.998-0.281
		c-8.832,0-15.992,3.577-15.992,7.996c0,4.42,7.161,7.997,15.992,7.997c1.39,0,2.714-0.117,3.998-0.281
		C216.889,174.74,211.782,171.644,211.782,167.919z"></path>
</g>
<path style="fill:#DA4453;" d="M211.782,295.857c0,4.42-10.741,7.996-23.988,7.996c-13.248,0-23.989-3.576-23.989-7.996
	c0-4.412,10.741-7.996,23.989-7.996C201.041,287.861,211.782,291.445,211.782,295.857z"></path>
<g style="opacity:0.2;">
	<path d="M171.801,295.857c0-3.951,8.656-7.223,19.99-7.863c-1.308-0.07-2.628-0.133-3.998-0.133
		c-13.248,0-23.989,3.584-23.989,7.996c0,4.42,10.741,7.996,23.989,7.996c1.37,0,2.69-0.062,3.998-0.133
		C180.457,303.081,171.801,299.824,171.801,295.857z"></path>
</g>
<path style="fill:#DA4453;" d="M331.724,335.839c0,4.419-8.957,7.996-19.99,7.996c-11.042,0-19.99-3.577-19.99-7.996
	c0-4.412,8.948-7.997,19.99-7.997C322.767,327.842,331.724,331.427,331.724,335.839z"></path>
<g style="opacity:0.2;">
	<path d="M299.739,335.839c0-3.866,6.863-7.091,15.992-7.841c-1.296-0.102-2.632-0.156-3.998-0.156
		c-11.042,0-19.99,3.585-19.99,7.997c0,4.419,8.948,7.996,19.99,7.996c1.366,0,2.702-0.055,3.998-0.156
		C306.603,342.929,299.739,339.712,299.739,335.839z"></path>
</g>
<g>
	<path style="fill:#3A3847;" d="M24.11,215.897c-2.206,0-4.037-1.789-4.037-3.998c0-2.21,1.75-3.998,3.959-3.998h0.078
		c2.21,0,3.999,1.788,3.999,3.998C28.108,214.108,26.32,215.897,24.11,215.897z"></path>
	<path style="fill:#3A3847;" d="M232.01,495.762c-2.206,0-4.037-1.788-4.037-3.998s1.749-3.998,3.959-3.998h0.078
		c2.21,0,3.998,1.788,3.998,3.998S234.22,495.762,232.01,495.762z"></path>
	<path style="fill:#3A3847;" d="M184.034,439.789c-2.206,0-4.037-1.789-4.037-3.998c0-2.211,1.749-3.998,3.959-3.998h0.078
		c2.209,0,3.998,1.787,3.998,3.998C188.032,438,186.243,439.789,184.034,439.789z"></path>
	<path style="fill:#3A3847;" d="M120.064,479.77c-2.206,0-4.037-1.788-4.037-3.998s1.749-3.998,3.959-3.998h0.078
		c2.21,0,3.998,1.788,3.998,3.998S122.274,479.77,120.064,479.77z"></path>
	<path style="fill:#3A3847;" d="M359.944,463.777c-2.202,0-4.037-1.789-4.037-3.998c0-2.21,1.749-3.998,3.959-3.998h0.078
		c2.21,0,3.998,1.788,3.998,3.998C363.942,461.988,362.154,463.777,359.944,463.777z"></path>
	<path style="fill:#3A3847;" d="M40.103,311.85c-2.206,0-4.037-1.788-4.037-3.998c0-2.209,1.749-3.998,3.959-3.998h0.078
		c2.21,0,3.998,1.789,3.998,3.998C44.101,310.062,42.313,311.85,40.103,311.85z"></path>
	<path style="fill:#3A3847;" d="M80.084,135.935c-2.206,0-4.037-1.788-4.037-3.998s1.749-3.998,3.959-3.998h0.078
		c2.21,0,3.998,1.788,3.998,3.998S82.294,135.935,80.084,135.935z"></path>
	<path style="fill:#3A3847;" d="M64.091,407.804c-2.206,0-4.037-1.788-4.037-3.998s1.749-3.998,3.959-3.998h0.078
		c2.209,0,3.998,1.788,3.998,3.998S66.301,407.804,64.091,407.804z"></path>
	<path style="fill:#3A3847;" d="M112.068,31.984c-2.206,0-4.037-1.788-4.037-3.998s1.749-3.998,3.959-3.998h0.078
		c2.21,0,3.998,1.788,3.998,3.998S114.278,31.984,112.068,31.984z"></path>
	<path style="fill:#3A3847;" d="M295.975,79.961c-2.201,0-4.037-1.788-4.037-3.998c0-2.209,1.75-3.998,3.959-3.998h0.078
		c2.211,0,3.998,1.789,3.998,3.998C299.973,78.173,298.186,79.961,295.975,79.961z"></path>
	<path style="fill:#3A3847;" d="M343.952,7.996c-2.202,0-4.037-1.788-4.037-3.998S341.664,0,343.874,0h0.078
		c2.21,0,3.998,1.788,3.998,3.998S346.162,7.996,343.952,7.996z"></path>
	<path style="fill:#3A3847;" d="M216.018,7.996c-2.206,0-4.037-1.788-4.037-3.998S213.73,0,215.94,0h0.078
		c2.21,0,3.998,1.788,3.998,3.998S218.228,7.996,216.018,7.996z"></path>
	<path style="fill:#3A3847;" d="M455.898,183.912c-2.202,0-4.037-1.789-4.037-3.998c0-2.21,1.749-3.998,3.959-3.998h0.078
		c2.21,0,3.998,1.788,3.998,3.998C459.897,182.123,458.108,183.912,455.898,183.912z"></path>
	<path style="fill:#3A3847;" d="M503.875,319.846c-2.202,0-4.037-1.787-4.037-3.998c0-2.209,1.749-3.998,3.959-3.998h0.078
		c2.21,0,3.998,1.789,3.998,3.998C507.873,318.059,506.085,319.846,503.875,319.846z"></path>
	<path style="fill:#3A3847;" d="M423.914,383.815c-2.202,0-4.037-1.788-4.037-3.998s1.749-3.998,3.959-3.998h0.078
		c2.209,0,3.998,1.788,3.998,3.998S426.123,383.815,423.914,383.815z"></path>
	<path style="fill:#3A3847;" d="M479.645,495.762c-2.21,0-3.998-1.788-3.998-3.998V459.78c0-2.21,1.788-3.998,3.998-3.998
		s3.998,1.788,3.998,3.998v31.984C483.643,493.974,481.855,495.762,479.645,495.762z"></path>
	<path style="fill:#3A3847;" d="M487.641,479.77h-15.992c-2.21,0-3.998-1.788-3.998-3.998s1.788-3.998,3.998-3.998h15.992
		c2.21,0,3.998,1.788,3.998,3.998S489.851,479.77,487.641,479.77z"></path>
	<path style="fill:#3A3847;" d="M39.86,71.965c-2.209,0-3.998-1.788-3.998-3.998V35.982c0-2.21,1.789-3.998,3.998-3.998
		c2.21,0,3.999,1.788,3.999,3.998v31.985C43.859,70.177,42.07,71.965,39.86,71.965z"></path>
	<path style="fill:#3A3847;" d="M47.857,55.973H31.864c-2.21,0-3.998-1.789-3.998-3.998c0-2.21,1.788-3.999,3.998-3.999h15.993
		c2.209,0,3.998,1.789,3.998,3.999S50.066,55.973,47.857,55.973z"></path>
	<path style="fill:#3A3847;" d="M47.861,511.754c-6.614,0-11.995-5.38-11.995-11.994s5.38-11.994,11.995-11.994
		c6.614,0,11.994,5.38,11.994,11.994S54.475,511.754,47.861,511.754z M47.861,495.762c-2.206,0-3.998,1.796-3.998,3.998
		s1.792,3.998,3.998,3.998s3.998-1.796,3.998-3.998S50.066,495.762,47.861,495.762z"></path>
	<path style="fill:#3A3847;" d="M41.516,498.908c-0.871,0-1.749-0.289-2.483-0.866c-1.093-0.875-26.874-21.747-35.069-61.439
		c-0.445-2.171,0.945-4.279,3.108-4.731c2.144-0.422,4.275,0.944,4.724,3.107c7.614,36.889,31.965,56.613,32.211,56.801
		c1.73,1.374,2.015,3.889,0.644,5.622C43.859,498.394,42.695,498.908,41.516,498.908z"></path>
	<path style="fill:#3A3847;" d="M255.76,411.802c-83.772,0-151.927-68.154-151.927-151.927s68.155-151.927,151.927-151.927
		s151.927,68.154,151.927,151.927S339.532,411.802,255.76,411.802z M255.76,115.944c-79.364,0-143.931,64.566-143.931,143.931
		c0,79.368,64.567,143.931,143.931,143.931c79.36,0,143.931-64.562,143.931-143.931C399.691,180.511,335.12,115.944,255.76,115.944z
		"></path>
	<path style="fill:#3A3847;" d="M171.801,227.891h-59.558c-2.21,0-3.998-1.788-3.998-3.998s1.788-3.998,3.998-3.998h59.558
		c2.209,0,3.998,1.788,3.998,3.998S174.011,227.891,171.801,227.891z"></path>
	<path style="fill:#3A3847;" d="M399.277,299.856H275.75c-2.209,0-3.998-1.788-3.998-3.998c0-2.209,1.789-3.998,3.998-3.998h123.527
		c2.209,0,3.998,1.789,3.998,3.998C403.275,298.067,401.486,299.856,399.277,299.856z"></path>
	<path style="fill:#3A3847;" d="M371.634,171.917h-39.91c-2.21,0-3.998-1.788-3.998-3.998c0-2.209,1.788-3.998,3.998-3.998h39.91
		c2.21,0,3.998,1.789,3.998,3.998C375.632,170.129,373.844,171.917,371.634,171.917z"></path>
	<path style="fill:#3A3847;" d="M251.762,363.825H146.711c-2.21,0-3.998-1.788-3.998-3.998s1.788-3.998,3.998-3.998h105.051
		c2.21,0,3.998,1.788,3.998,3.998S253.972,363.825,251.762,363.825z"></path>
	<path style="fill:#3A3847;" d="M311.733,243.883c-15.899,0-31.985-5.493-31.985-15.992c0-20.998,63.97-20.998,63.97,0
		C343.718,238.39,327.624,243.883,311.733,243.883z M311.733,219.895c-14.884,0-23.989,5.177-23.989,7.996s9.105,7.996,23.989,7.996
		c14.876,0,23.988-5.177,23.988-7.996C335.722,225.071,326.609,219.895,311.733,219.895z"></path>
	<path style="fill:#3A3847;" d="M219.778,179.914c-11.396,0-19.99-5.158-19.99-11.995c0-6.836,8.594-11.994,19.99-11.994
		c11.397,0,19.99,5.158,19.99,11.994C239.768,174.756,231.175,179.914,219.778,179.914z M219.778,163.921
		c-7.738,0-11.994,3.003-11.994,3.998c0,0.996,4.256,3.998,11.994,3.998s11.994-3.002,11.994-3.998
		C231.772,166.924,227.516,163.921,219.778,163.921z"></path>
	<path style="fill:#3A3847;" d="M187.794,307.852c-13.931,0-27.987-3.709-27.987-11.994s14.056-11.994,27.987-11.994
		s27.986,3.709,27.986,11.994S201.724,307.852,187.794,307.852z M168.166,295.857c1.878,1.484,8.574,3.998,19.627,3.998
		s17.749-2.514,19.627-3.998c-1.878-1.476-8.582-3.998-19.627-3.998C176.748,291.859,170.044,294.382,168.166,295.857z"></path>
	<path style="fill:#3A3847;" d="M311.733,347.833c-11.558,0-23.989-3.749-23.989-11.994c0-8.246,12.432-11.995,23.989-11.995
		c11.549,0,23.988,3.749,23.988,11.995C335.722,344.084,323.282,347.833,311.733,347.833z M311.733,331.841
		c-9.933,0-15.493,3.014-16.031,4.216c0.538,0.766,6.091,3.78,16.031,3.78c9.933,0,15.484-3.015,16.023-4.217
		C327.218,334.855,321.658,331.841,311.733,331.841z"></path>
	<path style="fill:#3A3847;" d="M447.66,95.954c-19.842,0-35.982-16.141-35.982-35.983s16.141-35.983,35.982-35.983
		s35.982,16.141,35.982,35.983S467.502,95.954,447.66,95.954z M447.66,31.984c-15.43,0-27.986,12.557-27.986,27.987
		s12.557,27.987,27.986,27.987s27.986-12.557,27.986-27.987S463.09,31.984,447.66,31.984z"></path>
	<path style="fill:#3A3847;" d="M426.975,65.527c-3.529,0-7.566-0.504-12.268-1.679c-2.14-0.535-3.443-2.706-2.904-4.845
		c0.53-2.147,2.701-3.471,4.841-2.909c15.157,3.776,20.889-0.5,28.158-5.931c6.935-5.173,14.751-10.986,30.782-10.179
		c2.202,0.121,3.896,2.003,3.779,4.209c-0.125,2.206-2.038,3.834-4.209,3.779c-13.079-0.71-19.154,3.815-25.565,8.598
		C443.67,60.99,437.595,65.527,426.975,65.527z"></path>
	<path style="fill:#3A3847;" d="M455.656,79.961h-7.996c-2.21,0-3.998-1.788-3.998-3.998c0-2.209,1.788-3.998,3.998-3.998h7.996
		c2.21,0,3.998,1.789,3.998,3.998C459.654,78.173,457.866,79.961,455.656,79.961z"></path>
</g>
<g>
</g>
<g>
</g>
<g>
</g>
<g>
</g>
<g>
</g>
<g>
</g>
<g>
</g>
<g>
</g>
<g>
</g>
<g>
</g>
<g>
</g>
<g>
</g>
<g>
</g>
<g>
</g>
<g>
</g>
</svg>